<?xml version="1.0" encoding="UTF-8"?>
<svg width="960px" height="960px" viewBox="0 0 960 960" version="1.1" xmlns="http://www.w3.org/2000/svg" xmlns:xlink="http://www.w3.org/1999/xlink">
    <title>drivers/esb64npipm-matter/assets/icon</title>
    <g id="/drivers/esb64npipm-matter/assets/icon" stroke="none" fill="none" fill-rule="nonzero">
        <path d="M405.892211,28.516202 L704.821634,30.8771888 C733.190598,31.1011326 759.839072,44.5166866 776.915823,67.1713298 L889.475334,216.496905 C904.74228,236.750595 913,261.424257 913,286.78745 L913,654.610054 C913,668.258827 910.606509,681.801867 905.928322,694.626751 L904.525323,698.456537 C893.036266,729.689335 882.697351,754.597014 873.351351,773.410522 L872.973003,774.169893 C864.83725,790.450527 852.494327,811.184356 835.814124,836.731346 L835.111384,837.807526 C816.254653,866.629897 785.635694,885.657625 751.442177,889.802104 L415.991593,930.452537 C398.999472,932.511657 381.809286,932.307689 364.870711,929.845957 L235.302606,914.111905 C216.240833,911.340624 198.323526,903.328901 183.546976,890.968679 L181.365382,889.138787 C153.89126,866.032349 132.472754,845.666467 116.950732,827.733669 L116.341083,827.027058 C100.723608,808.866838 86.6185835,792.40217 64.3550415,757.442755 L62.2240805,754.089225 C51.6846295,737.448062 46.0884252,718.155476 46.0884252,698.456537 L46.0884252,298.140873 C46.0884252,274.639028 54.0502196,251.830358 68.6756466,233.433793 L204.187785,62.9801065 C215.993173,48.1307219 233.649442,39.1197576 252.600781,38.2722955 L403.789536,28.5561359 C404.489967,28.516202 405.191101,28.516202 405.892211,28.516202 Z M466.882,68.999202 L433.97302,68.999202 C421.42453,68.999202 409.560663,74.721157 401.747308,84.5403268 L260.548352,261.987335 C252.946563,271.540625 248.807837,283.388752 248.807837,295.597459 L248.807837,712.488458 C248.807837,720.512846 251.153154,728.362281 255.553384,735.071178 C271.306486,759.083092 286.854135,779.799792 302.181226,797.218376 L303.119344,798.280699 C314.787973,811.446849 331.843498,829.276338 354.260765,851.73823 L357.797769,855.276284 L362.710397,860.171588 C366.454174,863.894294 370.331373,867.732245 374.341895,871.685321 L377.061058,874.363074 C388.738358,885.838459 404.99388,891.392332 421.252366,889.462216 L445.969,886.526202 L746.630117,850.092608 C769.110343,847.367857 789.241084,834.857887 801.63863,815.908331 L804.237134,811.920888 C819.169514,788.915741 830.154551,770.371977 837.191904,756.289375 L837.872562,754.919155 C846.753882,736.934938 856.91298,712.267289 868.351266,680.916723 C871.426375,672.486551 873,663.582544 873,654.609022 L873,286.78745 C873,270.112165 867.57088,253.89022 857.533474,240.574229 L744.973962,91.2486538 C735.388401,78.532097 720.430018,71.0016472 704.505885,70.8759425 L466.882,68.999202 Z M388.471822,69.280343 L266.240376,74.7463718 C256.629117,76.4947914 247.882876,81.6211666 241.646452,89.2986809 L103.500706,259.366655 C95.685615,268.987631 91.419744,281.005121 91.419744,293.400234 L91.419744,709.908656 C91.419744,717.947356 93.773189,725.810189 98.187779,732.526239 C114.295684,757.022796 130.183624,778.085667 145.838243,795.714129 C161.490745,813.340208 183.572434,834.312776 212.048703,858.569777 L213.134824,859.493927 C219.11631,864.571796 226.111363,868.265919 233.619499,870.350933 L363.684963,889.254239 L363.00734,888.596034 L355.87877,881.582941 L355.895734,881.565696 L350.469836,876.191817 C322.591025,848.521741 301.86039,827.014082 288.151633,811.545978 C271.844327,793.145834 255.40963,771.312372 238.830253,746.040995 C232.292124,736.072509 228.807837,724.411106 228.807837,712.489123 L228.807837,295.597459 C228.807837,278.865241 234.480024,262.627204 244.89839,249.534275 L386.097347,72.0872668 C386.863127,71.1248979 387.655098,70.1890258 388.471822,69.280343 Z M775.752072,710.258473 C783.525678,710.258473 789.82743,716.560225 789.82743,724.333831 L789.82743,811.493544 C789.82743,818.652945 784.453171,824.671693 777.339444,825.479106 L443.208321,863.403228 C442.681312,863.463043 442.151343,863.493023 441.62095,863.493023 C433.847344,863.493023 427.545592,857.191271 427.545592,849.417665 L427.545592,752.471082 L427.610311,751.114717 C428.252717,744.414757 433.605536,739.020885 440.439841,738.445367 L774.570964,710.308115 C774.963798,710.275035 775.357848,710.258473 775.752072,710.258473 Z M460.892162,767.111196 L460.635406,767.234744 C451.95653,771.497787 445.066299,782.51877 443.6661,796.041024 C442.07219,811.434968 448.101784,825.159709 457.700479,829.919537 C466.499451,825.748885 473.511539,814.644647 474.92546,800.989872 C476.519357,785.596058 470.489877,771.871419 460.892162,767.111196 Z M532.333281,760.713303 L532.07269,760.836862 C523.263092,765.099897 516.269087,776.120882 514.84784,789.64314 C513.229897,805.036839 519.35009,818.761392 529.093181,823.521813 C538.024861,819.351305 545.142737,808.246946 546.577932,794.591976 C548.195889,779.198151 542.075581,765.473499 532.333281,760.713303 Z M600.117278,754.984251 L600.107667,754.990487 C591.802381,759.599712 585.30868,770.271192 583.945052,783.24525 C582.397217,797.971912 587.931433,811.170947 596.9444,816.453827 C605.253981,811.847311 611.751869,801.172817 613.115988,788.194086 C614.663823,773.467425 609.129607,760.26839 600.117278,754.984251 Z M667.276248,748.966402 L667.227832,748.996456 C659.258243,753.804859 653.087902,764.238768 651.762686,776.84736 C650.250721,791.232742 655.496367,804.16048 664.140944,809.675952 C672.133727,804.880524 678.326171,794.430066 679.654044,781.796196 C681.166008,767.410815 675.920362,754.483077 667.276248,748.966402 Z M731.874176,744.259794 L731.797911,744.310361 C724.163091,749.293238 718.307968,759.485923 717.021163,771.729049 C715.545698,785.767159 720.505518,798.417154 728.779392,804.146483 C736.451729,799.181975 742.341828,788.962032 743.632944,776.677884 C745.108468,762.639206 740.148188,749.988756 731.874176,744.259794 Z M750.993129,136.771782 L838.692862,252.951324 C842.068544,257.423233 842.056138,263.595108 838.662505,268.05341 L796.392625,323.584429 C795.735042,324.448312 794.967715,325.222844 794.110016,325.888472 C788.656144,330.121014 780.803754,329.13093 776.571212,323.677058 L688.526845,210.226854 C682.931905,203.017452 683.085204,192.891967 688.89583,185.855245 L729.80867,136.309422 L730.064642,136.008515 C730.671925,135.315435 731.348808,134.686091 732.084835,134.13049 C738.035589,129.638482 746.501121,130.821028 750.993129,136.771782 Z M770.771652,238.156449 L770.612435,238.313839 C765.030364,243.893722 761.343697,252.203972 761.015838,261.592613 C760.662132,271.721449 764.295755,280.870909 770.22902,286.843408 C775.899752,281.263035 779.653209,272.884631 779.984162,263.407387 C780.337868,253.278551 776.704245,244.129091 770.771652,238.156449 Z M721.239221,177.996831 L720.986125,178.323663 C716.894776,183.693761 714.289054,190.768746 714.015838,198.592613 C713.714255,207.228827 716.311416,215.153045 720.761551,221.00296 C724.997904,215.594684 727.705371,208.390915 727.984162,200.407387 C728.285745,191.771173 725.688584,183.846955 721.239221,177.996831 Z" id="Combined-Shape" fill="#000000"></path>
    </g>
</svg>