<?xml version="1.0" encoding="UTF-8"?>
<svg width="960px" height="960px" viewBox="0 0 960 960" version="1.1" xmlns="http://www.w3.org/2000/svg" xmlns:xlink="http://www.w3.org/1999/xlink">
    <title>drivers/ftfsbwg-matter/assets/icon</title>
    <g id="/drivers/ftfsbwg-matter/assets/icon" stroke="none" fill="none" fill-rule="nonzero">
        <path d="M613.250043,6.6399559 L633.696751,13.4523366 C660.243418,22.2970854 678.150602,47.1383008 678.150602,75.1196356 L678.150602,874.187565 C678.150602,911.058247 649.550442,941.607892 612.759775,944.035654 L402.280084,957.924899 C385.742231,959.016207 369.192436,955.979926 354.119012,949.089104 L320.143718,933.557287 C296.296193,922.655382 281,898.843958 281,872.62267 L281,73.9170947 L281.355196,66.8232232 C284.878728,31.82843 314.189246,4.38390317 350.101412,3.9228618 L577.06757,0.984652439 C589.35829,0.851275456 601.588536,2.75460571 613.250043,6.6399559 Z M625,67.3732985 L389.177845,70.1784713 C377.678141,70.3153085 368.427711,79.676466 368.427711,91.1769848 L368.427711,888.372429 C368.427711,904.388686 381.411453,917.372429 397.427711,917.372429 C397.788082,917.372429 398.148422,917.372429 398.508543,917.35228 L424.089,916.398 L610.125962,904.12246 C625.893391,903.081991 638.150602,889.989286 638.150602,874.187565 L638.150602,95.2558514 C638.051224,94.6932344 638,94.114454 638,93.5237095 L638,80.3732985 C638,73.1935968 632.179702,67.3732985 625,67.3732985 Z M577.581049,40.9902335 L350.614891,43.9195659 C334.197901,44.1303277 321,57.4987509 321,73.917094 L321,872.62267 C321,883.189458 327.164138,892.785106 336.774334,897.178411 L350.843507,903.61088 C349.275559,898.814587 348.427711,893.69252 348.427711,888.372429 L348.427711,91.1769848 C348.427711,68.723591 366.488074,50.4470454 388.939879,50.1798871 L609.502,47.553 L600.606259,44.589063 C593.1853,42.1165674 585.402416,40.9053572 577.581049,40.9902335 Z M580.682229,285.004862 L580.682229,679.288676 C580.682229,684.639572 576.470056,689.042298 571.124393,689.278896 L437.665056,695.18577 C431.979139,695.437427 427.229973,690.899457 427.222899,685.207978 L427.15532,630.988061 C426.920418,630.20835 426.777647,629.387096 426.74013,628.536313 C426.689394,627.385763 426.835157,626.272064 427.147703,625.227669 L427.098355,585.505645 C426.897286,584.78482 426.774511,584.029951 426.74013,583.250282 C426.692538,582.17102 426.817849,581.124182 427.091536,580.136558 L427.041823,540.00796 C426.874201,539.351458 426.771162,538.667956 426.74013,537.964251 C426.69591,536.961465 426.800958,535.98667 427.0356,535.061357 L426.98172,491.519797 C426.849448,490.939934 426.767263,490.340081 426.74013,489.724784 C426.699805,488.810319 426.783611,487.919133 426.97663,487.067521 L426.924636,445.966689 C426.825627,445.470307 426.763119,444.960073 426.74013,444.438753 C426.703996,443.619334 426.767531,442.818608 426.920001,442.048297 L426.867773,400.370065 C426.8014,399.972167 426.758351,399.565927 426.74013,399.152721 C426.708808,398.442415 426.752378,397.746153 426.863849,397.071573 L426.806372,350.722518 C426.774149,350.461108 426.751932,350.196402 426.74013,349.928775 C426.715219,349.36385 426.73768,348.80781 426.803997,348.264496 L426.730233,288.955206 C426.723702,283.541965 431.025661,279.106167 436.436569,278.947097 L570.388376,275.009181 C576.023914,274.843507 580.682229,279.366889 580.682229,285.004862 Z M560.682229,632.639 L447.163,637.645 L447.20991,674.743737 L560.682229,669.721483 L560.682229,632.639 Z M560.682,587.353 L447.107,592.362 L447.138,617.627 L560.682,612.62 L560.682,587.353 Z M560.682,542.067 L447.051,547.078 L447.082,572.343 L560.682,567.334 L560.682,542.067 Z M560.682,493.827 L446.991,498.841 L447.026,527.06 L560.682,522.048 L560.682,493.827 Z M560.682,448.541 L446.935,453.557 L446.966,478.822 L560.682,473.808 L560.682,448.541 Z M560.682,403.255 L446.879,408.274 L446.91,433.539 L560.682,428.522 L560.682,403.255 Z M560.682,354.031 L446.817,359.053 L446.854,388.255 L560.682,383.236 L560.682,354.031 Z M560.682229,295.303163 L446.742497,298.652764 L446.792,339.034 L560.682229,334.012 L560.682229,295.303163 Z" id="Shape" fill="#000000"></path>
    </g>
</svg>