<?xml version="1.0" encoding="UTF-8"?>
<svg width="960px" height="960px" viewBox="0 0 960 960" version="1.1" xmlns="http://www.w3.org/2000/svg" xmlns:xlink="http://www.w3.org/1999/xlink">
    <title>drivers/ftkerw-matter/assets/icon</title>
    <g id="/drivers/ftkerw-matter/assets/icon" stroke="none" fill="none" fill-rule="nonzero">
        <path d="M617.375408,0.17011876 L681.059251,5.43487985 C683.470947,5.63425548 685.859576,6.05207346 688.195752,6.68319383 L690.634246,7.34195548 C698.86396,9.5652213 706.38858,13.8557078 712.493271,19.8058216 C732.268242,39.0800692 732.674159,70.7357158 713.399911,90.5106871 L417.087334,394.520223 C420.779306,396.240116 423.640507,399.055687 424.828852,403.198109 C426.159245,407.835696 424.830139,412.174624 422.015275,415.862757 C421.686881,416.29303 421.336514,416.716107 420.964755,417.132476 C421.744919,417.347555 422.49393,417.597039 423.212102,417.882135 C427.523802,419.593773 430.897325,422.627424 432.146297,427.286597 C433.117995,430.911424 432.483994,434.32748 430.799497,437.378726 L731.636288,409.591898 C740.77003,408.748266 749.976414,409.165323 758.996467,410.831337 L827.211288,423.430688 C856.540472,428.847821 877.651896,454.678669 877.122303,484.499231 L870.291627,869.12421 C869.630169,906.369907 839.914656,936.573098 802.684659,937.840714 L215.959038,957.817684 C201.602959,958.306484 187.290131,955.978762 173.828787,950.965964 L115.413711,929.213085 C95.4605075,921.782818 82.4015096,902.531638 82.8747518,881.245134 L88.1980141,641.804009 C88.6094895,623.295786 99.9111706,607.540741 115.912881,600.630502 C120.730401,596.556883 126.29136,593.505023 132.261576,591.598441 L106.777086,560.397482 C69.0675084,514.229205 75.0574709,446.411814 120.27572,407.568127 L580.675207,12.0726288 C590.823552,3.35492841 604.042282,-0.932134476 617.375408,0.17011876 Z M822.917294,480.799014 L399.95552,518.631244 C397.537691,518.847509 395.281077,519.93587 393.606564,521.693332 L339.580423,578.395755 L338.599,583.297 L336.610826,594.248987 L336.415,594.213 L327.904688,636.748674 C327.399684,639.272581 325.940928,641.50457 323.831973,642.980188 C301.928995,658.305509 278.213986,666.758292 252.866556,668.22706 C234.286567,669.303686 217.696231,667.466444 203.165729,662.630479 L202.918576,662.636227 L199.931946,897.457313 C199.931946,897.715073 199.931946,897.972871 199.938683,898.230565 C200.212721,908.785653 208.616453,917.218008 219.001806,917.690718 L801.323519,897.863879 C817.279231,897.320616 830.014451,884.376391 830.297933,868.413949 L836.982823,492.197099 C836.151891,485.246119 829.937124,480.171118 822.917294,480.799014 Z M144.540782,629.628472 C142.873054,630.192454 141.365691,631.192921 140.188468,632.550656 L136.481161,636.82643 L134.18665,636.82643 C130.924907,636.82643 128.26063,639.432133 128.188133,642.693071 L122.86487,882.134195 C122.770222,886.391496 125.382021,890.241732 129.372662,891.727786 L182.356948,911.458815 C180.90386,907.485708 180.061289,903.212548 179.945421,898.749641 C179.931946,898.234254 179.931946,897.718657 179.931946,897.203138 L182.974,658.084 L177.47144,656.739413 C167.616142,654.331402 167.197878,640.475238 176.883717,637.474223 L144.540782,629.628472 Z M273.499402,676.452715 C298.66834,679.541709 316.427387,703.573312 313.165344,730.128804 C309.9033,756.684296 286.855436,775.707651 261.686498,772.618657 C236.51756,769.529664 218.758513,745.49806 222.020557,718.942569 C222.081586,718.445746 222.14954,717.951559 222.224305,717.460104 C222.252635,717.11209 222.288364,716.762418 222.331423,716.411886 C222.585089,714.346853 223.078381,712.372312 223.778429,710.51508 C230.351885,688.488683 251.084501,673.701725 273.499402,676.452715 Z M258.217114,698.297845 L258.050292,698.37475 C265.592927,703.198676 270.12056,712.327631 268.916536,722.129295 C267.499716,733.663278 258.607415,742.374212 247.967253,743.589684 C251.994037,748.57884 257.659252,751.974327 264.122826,752.767604 L266.730039,752.942193 C279.700543,753.091258 291.492233,742.525394 293.314551,727.690357 C295.258161,711.867906 285.022532,698.017018 271.063075,696.303768 C266.767326,695.776549 262.53543,696.449816 258.678167,698.095687 L258.217114,698.297845 Z M769.377451,633.617962 C794.546389,636.706956 812.305436,660.738559 809.043392,687.294051 C805.781349,713.849543 782.733485,732.872898 757.564547,729.783904 C732.395609,726.694911 714.636562,702.663307 717.898605,676.107816 C721.160649,649.552324 744.208513,630.528969 769.377451,633.617962 Z M752.261596,656.378556 L752.164281,656.433534 C758.92194,661.438298 762.866936,670.068406 761.733609,679.294542 C760.437874,689.842799 752.889809,698.029919 743.470465,700.281977 C747.516983,705.528213 753.334279,709.114658 760.000874,709.932851 L762.608088,710.10744 C775.578592,710.256505 787.370282,699.690641 789.192599,684.855604 C791.13621,669.033153 780.900581,655.182265 766.941124,653.469015 C761.947674,652.856167 757.040502,653.86543 752.707743,656.138877 L752.261596,656.378556 Z M190.06,610.263 L182.882,618.349 L216.893102,626.598249 C226.666538,628.968699 227.182546,642.598845 217.773736,645.778475 L217.445792,645.883722 C227.577826,648.193842 238.989196,648.997642 251.709588,648.260553 C253.491333,648.157309 255.263346,648.013639 257.025719,647.829433 L239.208,618.02 L190.06,610.263 Z M676.683195,47.5685186 L226.813697,447.326065 C201.681061,469.659122 195.976241,506.705937 213.225767,535.565401 L272.406638,634.578451 L283.05787,636.836806 L301.028284,633.612771 L301.037827,633.664543 C303.755404,632.136342 306.447499,630.488589 309.114558,628.720745 L318.952,579.552 L347.533,422.207 L348.467766,413.69076 C348.954539,409.25449 350.911121,405.108486 354.026144,401.912539 L684.755309,62.591397 C688.610158,58.6364027 688.528975,52.3052734 684.573981,48.4504239 C683.654384,47.5541121 682.573684,46.8460994 681.392967,46.361217 C679.773453,45.9927492 678.010466,46.3890955 676.683195,47.5685186 Z M160.457,562.886 L176.913356,583.034005 C179.464584,586.157504 183.043177,588.272267 187.00987,589.000522 L205.863275,592.461865 L205.825,592.504 L225.846,595.664 L210.557,570.084 L160.457,562.886 Z M148.807,435.791 L146.340312,437.910128 C117.586153,462.610721 113.777152,505.735612 137.756568,535.093892 L141.76,539.995 L197.346,547.98 L196.058572,545.826366 C176.643325,513.343524 179.845962,472.793341 202.624506,443.930261 L148.807,435.791 Z M735.3152,449.422359 L410.861281,479.390775 C411.130643,485.829851 406.371356,491.470736 399.868796,492.19915 L354.217,497.312 L345.975,542.691 L379.126845,507.897038 C384.150383,502.62465 390.920228,499.359568 398.173714,498.710773 L813.451,461.565 L751.731308,450.166022 C746.319276,449.166414 740.795445,448.91618 735.3152,449.422359 Z M227.079211,493.742505 C228.796076,479.765931 240.162893,469.659917 252.467707,471.170091 C264.772521,472.680266 273.35575,485.234757 271.638885,499.211332 C269.92202,513.187906 258.555203,523.29392 246.250389,521.783745 C233.945575,520.273571 225.362346,507.71908 227.079211,493.742505 Z M606.739799,42.4146299 L168.829,418.592 L220.281,426.374 L651.565,43.133 L614.079839,40.0341279 C611.413214,39.8136773 608.769468,40.6710899 606.739799,42.4146299 Z" id="Shape" fill="#000000"></path>
    </g>
</svg>