<?xml version="1.0" encoding="UTF-8"?>
<svg width="960px" height="960px" viewBox="0 0 960 960" version="1.1" xmlns="http://www.w3.org/2000/svg" xmlns:xlink="http://www.w3.org/1999/xlink">
    <title>drivers/ftkbwg-matter/assets/icon</title>
    <g id="/drivers/ftkbwg-matter/assets/icon" stroke="none" fill="none">
        <path d="M526.250043,6.6399559 L546.696751,13.4523366 C573.243418,22.2970854 591.150602,47.1383008 591.150602,75.1196356 L591.150602,874.187565 C591.150602,911.058247 562.550442,941.607892 525.759775,944.035654 L315.280084,957.924899 C298.742231,959.016207 282.192436,955.979926 267.119012,949.089104 L233.143718,933.557287 C209.296193,922.655382 194,898.843958 194,872.62267 L194,73.9170947 L194.355196,66.8232232 C197.878728,31.82843 227.189246,4.38390317 263.101412,3.9228618 L490.06757,0.984652439 C502.35829,0.851275456 514.588536,2.75460571 526.250043,6.6399559 Z M538,67.3732985 L302.177845,70.1784713 C290.678141,70.3153085 281.427711,79.676466 281.427711,91.1769848 L281.427711,888.372429 C281.427711,904.388686 294.411453,917.372429 310.427711,917.372429 C310.788082,917.372429 311.148422,917.372429 311.508543,917.35228 L337.089,916.398 L523.125962,904.12246 C538.893391,903.081991 551.150602,889.989286 551.150602,874.187565 L551.150602,95.2558514 C551.051224,94.6932344 551,94.114454 551,93.5237095 L551,80.3732985 C551,73.1935968 545.179702,67.3732985 538,67.3732985 Z M490.581049,40.9902335 L263.614891,43.9195659 C247.197901,44.1303277 234,57.4987509 234,73.917094 L234,872.62267 C234,883.189458 240.164138,892.785106 249.774334,897.178411 L263.843507,903.61088 C262.275559,898.814587 261.427711,893.69252 261.427711,888.372429 L261.427711,91.1769848 C261.427711,68.723591 279.488074,50.4470454 301.939879,50.1798871 L522.502,47.553 L513.606259,44.589063 C506.1853,42.1165674 498.402416,40.9053572 490.581049,40.9902335 Z M493.682229,285.004862 L493.682229,679.288676 C493.682229,684.639572 489.470056,689.042298 484.124393,689.278896 L350.665056,695.18577 C344.979139,695.437427 340.229973,690.899457 340.222899,685.207978 L340.15532,630.988061 C339.920418,630.20835 339.777647,629.387096 339.74013,628.536313 C339.689394,627.385763 339.835157,626.272064 340.147703,625.227669 L340.098355,585.505645 C339.897286,584.78482 339.774511,584.029951 339.74013,583.250282 C339.692538,582.17102 339.817849,581.124182 340.091536,580.136558 L340.041823,540.00796 C339.874201,539.351458 339.771162,538.667956 339.74013,537.964251 C339.69591,536.961465 339.800958,535.98667 340.0356,535.061357 L339.98172,491.519797 C339.849448,490.939934 339.767263,490.340081 339.74013,489.724784 C339.699805,488.810319 339.783611,487.919133 339.97663,487.067521 L339.924636,445.966689 C339.825627,445.470307 339.763119,444.960073 339.74013,444.438753 C339.703996,443.619334 339.767531,442.818608 339.920001,442.048297 L339.867773,400.370065 C339.8014,399.972167 339.758351,399.565927 339.74013,399.152721 C339.708808,398.442415 339.752378,397.746153 339.863849,397.071573 L339.806372,350.722518 C339.774149,350.461108 339.751932,350.196402 339.74013,349.928775 C339.715219,349.36385 339.73768,348.80781 339.803997,348.264496 L339.730233,288.955206 C339.723702,283.541965 344.025661,279.106167 349.436569,278.947097 L483.388376,275.009181 C489.023914,274.843507 493.682229,279.366889 493.682229,285.004862 Z M473.682229,632.639 L360.163,637.645 L360.20991,674.743737 L473.682229,669.721483 L473.682229,632.639 Z M473.682,587.353 L360.107,592.362 L360.138,617.627 L473.682,612.62 L473.682,587.353 Z M473.682,542.067 L360.051,547.078 L360.082,572.343 L473.682,567.334 L473.682,542.067 Z M473.682,493.827 L359.991,498.841 L360.026,527.06 L473.682,522.048 L473.682,493.827 Z M473.682,448.541 L359.935,453.557 L359.966,478.822 L473.682,473.808 L473.682,448.541 Z M473.682,403.255 L359.879,408.274 L359.91,433.539 L473.682,428.522 L473.682,403.255 Z M473.682,354.031 L359.817,359.053 L359.854,388.255 L473.682,383.236 L473.682,354.031 Z M473.682229,295.303163 L359.742497,298.652764 L359.792,339.034 L473.682229,334.012 L473.682229,295.303163 Z" id="Shape" fill="#000000" fill-rule="nonzero"></path>
        <g id="Group" stroke-width="1" fill-rule="evenodd" transform="translate(665, 265)" stroke="#000000" stroke-linejoin="round">
            <path d="M84.812577,-9.26914387 C88.4801141,-8.16656676 91.9180023,-6.60089571 95.1561321,-4.66664853 C96.953952,-3.59274844 98.5772839,-2.47386724 100.183094,-1.24858544 C100.958617,-0.656837397 102.466555,0.551464172 102.477766,0.559865899 C113.039819,8.47564388 119.191182,24.6390782 119.191182,42.278156 L119.191182,389.872865 C119.191182,405.101273 114.431534,419.243956 106.092505,427.565556 C106.165081,427.493132 104.535056,429.181236 103.7711,429.926325 C102.322084,431.339555 100.839615,432.629522 99.1734872,433.870977 C94.4329688,437.403202 88.9773477,439.947766 82.6842629,441.204576 L82.6833847,442.48691 L71.2080467,442.187371 L45.4529787,441.515091 C42.854546,441.966812 40.1395154,442.191182 37.3150303,442.191182 C27.1579603,442.191182 18.3519059,439.401753 10.8532349,434.714798 C8.95867153,433.530624 7.23378745,432.276658 5.62187446,430.953853 C4.51934971,430.049074 3.82945267,429.430084 2.64341823,428.325761 C-6.15038621,420.137802 -11.191182,405.675292 -11.191182,390.06009 L-11.191182,44.0477547 C-11.191182,27.0043814 -5.39682799,11.3265814 4.59541769,3.20144486 C4.7026544,3.11424595 5.37587369,2.55525312 5.55484675,2.40791175 C6.13202527,1.93274376 6.66406656,1.50589302 7.23929171,1.06154065 C8.82764415,-0.165436606 10.4716099,-1.31019399 12.2696925,-2.40037795 C16.0592154,-4.69797927 20.108376,-6.50048371 24.4473102,-7.65174011 L24.4483881,-9.98073895 L35.3575624,-10.250798 L68.6022757,-11.0737781 C69.6652173,-11.1524347 70.7371934,-11.191182 71.8172589,-11.191182 C72.1542073,-11.191182 72.4902847,-11.1874708 72.8251767,-11.1788145 L73.1839545,-11.1877292 L84.8501845,-11.4775926 Z" id="Combined-Shape" stroke-width="22.382364"></path>
            <path d="M90.1118936,1.0040346 C91.8572948,1.9449393 93.4438383,2.93181237 95.02708,4.02205153 C95.7904118,4.54769101 97.488136,5.77538891 97.6104331,5.85810612 L99.4122655,7.19761643 C108.198465,14.3427229 113.595591,28.0846415 113.595591,43.1800628 L113.595591,389.968287 C113.595591,403.897213 108.825941,416.687378 100.8968,423.828233 C100.908405,423.817781 99.1420612,425.468651 98.3838225,426.136039 C96.9787288,427.372777 95.5572038,428.489075 93.9726672,429.554585 C87.3464695,434.010322 79.2903892,436.595591 69.2517451,436.595591 C59.457584,436.595591 51.0174941,434.171799 43.7969342,430.080214 C40.5644086,428.248479 38.4905909,426.705575 35.7436448,424.386775 C27.4397247,417.377127 22.404409,404.279714 22.404409,389.968287 L22.404409,43.1800628 C22.404409,27.548329 28.1926235,13.3499442 37.5652239,6.44051929 C37.7156319,6.32963942 38.482916,5.75204881 38.6573053,5.62189078 C39.2456258,5.18278896 39.7815412,4.79298951 40.3563956,4.39040067 C41.9209496,3.29469372 43.5310038,2.27826849 45.2829779,1.31525571 C52.0357254,-2.39654693 59.5610299,-4.59559101 68,-4.59559101 C76.2807517,-4.59559101 83.5748588,-2.519927 90.1118936,1.0040346 Z" id="Path-2" stroke-width="11.191182" stroke-linecap="round"></path>
        </g>
    </g>
</svg>