<?xml version="1.0" encoding="UTF-8"?>
<svg width="600px" height="600px" viewBox="0 0 600 600" version="1.1" xmlns="http://www.w3.org/2000/svg" xmlns:xlink="http://www.w3.org/1999/xlink">
    <title>assets/icon</title>
    <g id="/assets/icon" stroke="none" fill="none" fill-rule="nonzero">
        <path d="M599.367781,301.558476 C595.839213,288.778916 584.900652,280.899494 574.236536,279.292249 C549.497354,277.488998 529.894198,295.913517 518.602781,313.906823 C514.133262,321.041424 513.505961,321.433435 507.076126,335.349827 C501.548036,347.345365 477.044092,352.715916 469.594893,352.715916 C457.244905,352.715916 450.148563,344.993298 445.796662,335.781039 C445.561424,335.310626 478.886788,332.997761 495.353439,311.750763 C500.450259,305.204178 504.723747,296.73674 499.626927,286.191643 C496.451216,279.488255 488.021859,274.039301 477.671393,274.901726 C477.671393,274.901726 466.379975,275.215334 459.793315,276.508971 L482.689801,231.662909 L454.1084,231.662909 C454.1084,231.662909 440.817461,259.730899 422.743352,291.287787 C414.47082,305.713793 406.472733,317.356521 397.925757,327.784014 C388.594655,339.230736 379.459585,344.875695 373.735464,345.150103 C371.853561,345.228505 369.893245,345.424511 368.128961,343.150847 C362.679284,336.212251 370.167689,322.923077 374.950859,312.848394 C378.989109,304.302553 384.007517,295.756713 387.575291,287.994894 C390.907828,280.781891 383.184184,281.056299 379.498791,281.291505 C365.031663,282.193131 351.77993,280.664288 336.881532,281.291505 C321.002976,283.094756 311.554255,292.503021 302.027122,302.499302 C286.932692,318.336548 265.290809,342.91564 253.842566,345.306907 C250.353204,346.051728 248.510508,345.973326 246.510986,344.248477 C245.217178,343.150847 244.119401,339.975557 244.942733,337.388284 C250.313998,320.100598 261.44859,303.988944 269.446677,288.426106 L286.501423,288.426106 L296.106969,271.765637 L276.935083,271.765637 C282.267141,261.416546 297.204745,231.898115 297.204745,231.898115 L270.544454,231.898115 C264.585095,243.815251 255.489231,260.279714 249.608284,271.687235 L232.318301,271.687235 L222.791168,288.465307 L243.139243,288.465307 L240.708452,291.562195 C192.602309,350.912665 156.532503,350.207045 156.532503,350.207045 C156.532503,350.207045 148.534416,350.01104 147.31902,341.229992 C146.338862,333.977788 146.378069,328.568036 158.649644,321.433435 C183.467238,307.007429 203.462457,294.110266 213.773716,263.062992 C217.184665,252.870705 216.086889,237.856683 206.598962,232.995746 C197.150241,228.134809 187.427076,228.722826 176.762959,234.054176 C151.200445,245.775306 137.321411,278.821836 132.028559,302.224895 C129.67618,313.005198 127.833484,314.102829 121.364442,318.41495 C117.208574,321.198229 96.429229,331.664923 76.0811538,339.544345 C57.6933941,346.639745 42.3637267,350.481453 34.2872267,350.834263 C31.5819913,350.951866 24.9561248,349.30542 25.4658069,343.150847 C26.1323141,334.76181 27.2692971,331.351314 29.1904064,324.569524 C31.1115156,317.787733 35.3850034,308.497071 40.6778554,308.497071 L84.1576538,308.497071 C85.8043188,308.497071 89.0192363,308.497071 89.0192363,308.497071 L99.0952581,289.99415 L102.15335,284.074784 L54.8313335,284.074784 C52.7926053,284.074784 51.0283213,281.918723 53.1454621,278.743434 C58.9087898,270.001588 65.2994184,262.357373 73.3759184,255.301174 C83.7263843,246.28492 126.108406,249.225003 126.108406,249.225003 C128.578404,244.52087 137.948712,225.469134 137.948712,225.469134 L85.0986052,225.469134 C66.9852897,225.469134 50.6754645,239.934341 40.3642049,252.086683 C22.7997777,274.901726 8.41106177,303.871341 2.02043315,333.076163 C-0.0967076241,342.680433 -1.19448432,353.735144 5.1961443,362.47699 C12.0180423,371.767652 25.4266005,375.25655 36.090717,374.19812 C69.3376684,370.905228 95.2530396,356.557624 123.481583,343.738863 C124.814598,343.150847 125.63793,342.680433 125.63793,342.680433 C125.63793,348.756604 125.63793,355.734401 127.755071,361.849773 C130.656338,370.27801 141.242042,374.19812 147.985527,374.433327 C168.333603,375.099746 184.878666,366.3579 200.208333,357.067238 C209.617848,351.383078 219.929107,343.856466 219.929107,343.856466 C219.929107,346.83575 219.458631,353.460737 223.457675,361.967376 C227.221481,370.003602 234.435442,375.178148 247.09908,374.315724 C263.448112,373.218093 276.503813,358.282472 285.560471,349.501425 C285.560471,349.501425 289.167452,369.964401 301.321408,373.492501 C315.514092,378.275035 337.861689,361.222555 346.173427,354.323161 C346.173427,354.323161 345.859777,363.88823 349.466757,369.337184 C353.073738,374.786137 356.249449,374.354925 358.131352,374.354925 C367.227216,374.354925 385.379738,360.477734 387.810529,358.008065 C386.94799,359.61531 380.36133,374.315724 380.36133,374.315724 L408.785905,374.315724 L424.468429,343.307651 C429.408425,352.363106 433.995563,364.554649 453.128242,372.198864 C475.240602,381.019112 509.702949,360.477734 508.644378,360.477734 C513.662786,368.670765 525.816742,373.884512 535.814351,374.237321 C559.024487,374.864539 578.54923,356.126412 589.095727,339.505144 C595.603975,330.096879 603.170793,314.769248 599.328574,301.558476 L599.367781,301.558476 Z M164.844241,268.551147 C182.212636,244.795278 190.093105,248.636986 192.876753,250.322634 C192.876753,250.322634 203.227219,258.398061 180.722797,281.330707 C167.079001,295.168696 154.6506,301.401671 152.925522,299.872828 C148.103146,295.599908 162.531069,271.726436 164.844241,268.551147 L164.844241,268.551147 Z M313.396952,343.346852 C301.713471,336.251452 334.489947,296.540735 345.271682,303.910542 C357.425638,309.790708 325.746939,350.873464 313.396952,343.346852 Z M448.070628,299.755225 C449.050786,298.069578 467.987434,291.640597 472.260922,296.775941 C482.258531,308.81068 438.347463,316.494096 438.464846,316.25889 L448.070628,299.755225 L448.070628,299.755225 Z M537.892286,345.189304 C526.169599,339.348339 558.985281,298.383186 569.72781,305.713793 C581.881766,311.593958 549.575766,353.57834 537.892286,345.189304 Z" id="Shape" fill="#000000"></path>
    </g>
</svg>