<?xml version="1.0" encoding="UTF-8"?>
<svg width="960px" height="960px" viewBox="0 0 960 960" version="1.1" xmlns="http://www.w3.org/2000/svg" xmlns:xlink="http://www.w3.org/1999/xlink">
    <title>drivers/f4t55e-matter/assets/icon</title>
    <g id="/drivers/f4t55e-matter/assets/icon" stroke="none" fill="none">
        <path d="M192.725452,2.13221539 L806.605264,52.1683013 C839.567347,54.8549731 866.309344,79.9437157 871.091212,112.667573 L879.120415,167.613988 C879.400277,169.529176 879.540762,171.462151 879.540762,173.397679 L879.540762,769.146176 C879.540762,770.934084 879.420889,772.719981 879.18195,774.491851 L870.862752,836.183386 C866.463884,868.803478 840.221823,894.123064 807.465259,897.352299 L199.367542,957.300293 C196.145797,957.617902 192.897409,957.543218 189.693664,957.077881 L152.069605,951.61306 C111.266602,945.686505 81,910.706138 81,869.474971 L81,95.599989 C81,59.7201663 104.055082,27.9023634 138.150447,16.727937 L177.018294,3.9893754 C182.078213,2.33103567 187.41831,1.69964113 192.725452,2.13221539 Z M153.589117,83.3611778 C153.508742,84.4194819 153.468511,85.4804523 153.468511,86.5418041 L153.468511,876.067306 C153.468511,893.994199 164.69998,909.297843 180.510095,915.325412 L195.443252,917.493259 L403.869,896.946 L803.094554,856.065701 C814.991437,854.847454 825.014658,847.362132 829.772845,836.905904 C830.448369,834.966261 830.938527,832.936598 831.221565,830.837712 L839.540762,769.146176 L839.54,186.288 L833.084,129.217 L831.511559,118.451264 C829.423701,104.163382 817.747618,93.2091427 803.355723,92.0360888 L542.907,70.807 L198.649137,44.6624105 C175.519787,42.905799 155.345729,60.2318273 153.589117,83.3611778 Z M139.198772,60.4688052 L138.964487,60.636062 C127.898969,68.5612223 121,81.4728492 121,95.599989 L121,869.474971 C121,884.655575 128.919543,898.200597 141.089686,905.869689 C136.231053,897.026487 133.468511,886.86951 133.468511,876.067306 L133.468511,86.5418041 C133.468511,84.9750467 133.5279,83.4088522 133.646549,81.8465938 C134.225732,74.220474 136.161251,67.0217345 139.198772,60.4688052 Z M349.466522,163.585203 L795.071934,189.606937 C813.577828,190.687614 828.031537,206.009991 828.031537,224.547412 L828.031537,744.520115 C828.031537,762.978644 813.696621,778.264323 795.276088,779.448069 L338.224978,808.819223 C335.386987,809.001598 332.537346,808.837407 329.739082,808.330281 L319.955138,806.557147 C307.790304,804.352528 298.94512,793.760259 298.94512,781.397268 L298.94512,198.722925 C298.94512,182.999982 310.233237,169.546291 325.717107,166.814856 L341.345823,164.057868 C344.025151,163.585221 346.750452,163.426595 349.466522,163.585203 Z M326.91669,187.138615 L326.838144,187.169058 C322.155809,188.993123 318.94512,193.535302 318.94512,198.722925 L318.94512,781.397268 C318.94512,784.090233 320.87182,786.397491 323.521621,786.877711 L328.054911,787.700063 C325.798039,783.072383 324.531639,777.87299 324.531639,772.377813 L324.531639,199.863671 C324.531639,199.199163 324.550563,198.53479 324.588389,197.87136 C324.803928,194.091011 325.611784,190.4851 326.91669,187.138615 Z M344.555961,199.009823 C344.53975,199.294151 344.531639,199.578882 344.531639,199.863671 L344.531639,772.377813 C344.531639,780.662085 351.247368,787.377813 359.531639,787.377813 C359.852537,787.377813 360.173352,787.367516 360.493589,787.346937 L793.993487,759.489238 C801.888002,758.981918 808.031537,752.430913 808.031537,744.520115 L808.031537,224.579942 C808.031537,216.627365 801.825067,210.056949 793.885385,209.604263 L360.385487,184.887993 C352.114648,184.416426 345.027528,190.738985 344.555961,199.009823 Z" id="Combined-Shape" fill="#000000" fill-rule="nonzero"></path>
        <line x1="595.499" y1="184.863238" x2="595.499" y2="778.860176" id="Path-2" stroke="#000000" stroke-width="20"></line>
    </g>
</svg>