<?xml version="1.0" encoding="UTF-8"?>
<svg width="960px" height="960px" viewBox="0 0 960 960" version="1.1" xmlns="http://www.w3.org/2000/svg" xmlns:xlink="http://www.w3.org/1999/xlink">
    <title>drivers/fws81-matter/assets/icon</title>
    <g id="/drivers/fws81-matter/assets/icon" stroke="none" fill="none" fill-rule="nonzero">
        <path d="M803.694101,106.035047 L886.102386,124.16124 C927.371584,133.238646 956.768519,169.804333 956.768519,212.060054 L956.768519,472.706237 C956.768519,478.551924 956.512194,484.394799 956.000331,490.218081 L955.079288,500.597783 C951.631853,539.069937 948.693572,567.490814 946.229402,586.089162 L945.868182,588.772347 C943.537791,605.827566 939.067341,634.07847 932.422722,673.795201 C926.148158,711.315845 896.972897,740.834504 859.538966,747.546235 L254.643813,856.019988 C224.159172,861.486707 192.741417,854.955406 166.961247,837.792039 L114.519856,802.878737 C90.1886091,786.680002 75.2396318,759.673911 74.4302694,730.454851 L67.2364549,470.748563 L49.3282402,465.035345 C41.5401279,462.55171 34.3773325,458.421974 28.3404229,452.939579 C17.7148364,443.299568 11.0990611,430.612266 7.28390843,415.585068 C4.33606947,403.974062 3,390.610315 3,375.196939 C3,355.742543 5.64763557,339.609441 12.1836445,326.054924 C21.5873486,306.553319 38.9284896,293.69958 60.6389622,292.076425 L61.3083966,292.029736 C62.3763001,291.96163 63.4451656,291.927883 64.5135261,291.93333 L63.7125637,247.996544 C62.8495783,200.65741 98.812409,160.74449 145.985247,156.687186 L764.62732,103.478194 C777.703986,102.353479 790.875577,103.215537 803.694101,106.035047 Z M882,186.582525 C880.838018,186.582525 879.676758,186.64039 878.520532,186.755907 L250.892701,249.461126 C224.655735,252.082416 204.963605,274.627595 205.894542,300.978742 L215.108635,561.793372 C215.153712,563.06931 215.149901,564.346506 215.097211,565.622152 L206.303911,778.51078 C205.460588,798.927907 221.328291,816.162907 241.745417,817.00623 C243.083905,817.061516 244.423475,817.036108 245.758229,816.954152 C246.367558,816.85882 246.975737,816.757007 247.58336,816.648044 L852.478531,708.174288 C873.275819,704.44543 889.484297,688.046175 892.969553,667.206679 L895.86913,649.763624 C901.11126,618.014943 904.654884,595.229184 906.5,581.406349 L906.974285,577.772684 C909.486089,558.114282 912.545969,527.761905 916.153972,486.715558 C916.563459,482.056971 916.769074,477.382671 916.769074,472.706121 L916.769074,217.540104 C914.765022,200.114282 899.962767,186.582525 882,186.582525 Z M768.055038,143.331058 L149.412965,196.54005 C123.205833,198.794108 103.226482,220.967952 103.705919,247.267471 L105.412037,340.856718 L105.284,340.827 L106.435185,441.267788 L114.414933,729.347283 C114.864578,745.580095 123.169566,760.583479 136.686925,769.582775 L189.128317,804.496077 C190.398645,805.341809 191.689507,806.148818 192.999132,806.916737 C188.346617,798.237454 185.885108,788.23728 186.32095,777.68539 L195.11425,564.796762 C195.145864,564.031375 195.14815,563.265057 195.121104,562.499494 L185.907011,301.684864 C184.6037,264.793258 212.172681,233.230008 248.904434,229.560201 L876.532265,166.854982 C878.349191,166.673457 880.174029,166.582525 882,166.582525 C884.141089,166.582525 886.253602,166.704869 888.330931,166.942947 C884.935128,165.320892 881.313103,164.063993 877.509556,163.22738 L795.101271,145.101187 C786.226908,143.149218 777.108115,142.552409 768.055038,143.331058 Z M63.8542391,331.948637 L63.4392579,331.979694 C49.813086,333.128836 43,347.534585 43,375.196939 C43,399.88381 47.0713422,415.92432 55.2173818,423.314774 C57.0222211,424.95383 59.1584934,426.185505 61.4812638,426.926239 L86.144,434.794 L85.241,336.333 L66.6741719,332.169651 C65.7494142,331.96274 64.7999406,331.888325 63.8542391,331.948637 Z M64.9063131,354.372381 C70.7817971,353.545662 77.2023772,364.683524 79.2470802,379.249492 L79.3670091,380.147733 C81.1625453,394.325072 78.0651775,406.310743 72.3108375,407.120416 C66.4959255,407.938612 60.1470986,397.037648 58.0346985,382.692697 L57.9700704,382.243305 C55.9253675,367.677337 59.0308291,355.199099 64.9063131,354.372381 Z" id="Shape" fill="#000000"></path>
    </g>
</svg>