<?xml version="1.0" encoding="UTF-8"?>
<svg width="960px" height="960px" viewBox="0 0 960 960" version="1.1" xmlns="http://www.w3.org/2000/svg" xmlns:xlink="http://www.w3.org/1999/xlink">
    <title>drivers/esb64npipm-matter-bridge/assets/icon</title>
    <g id="/drivers/esb64npipm-matter-bridge/assets/icon" stroke="none" fill="none" fill-rule="nonzero">
        <path d="M439.892211,28.516202 L738.821634,30.8771888 C767.190598,31.1011326 793.839072,44.5166866 810.915823,67.1713298 L923.475334,216.496905 C938.74228,236.750595 947,261.424257 947,286.78745 L947,654.610054 C947,668.258827 944.606509,681.801867 939.928322,694.626751 L938.525323,698.456537 C927.036266,729.689335 916.697351,754.597014 907.351351,773.410522 L906.973003,774.169893 C898.83725,790.450527 886.494327,811.184356 869.814124,836.731346 L869.111384,837.807526 C850.254653,866.629897 819.635694,885.657625 785.442177,889.802104 L449.991593,930.452537 C432.999472,932.511657 415.809286,932.307689 398.870711,929.845957 L207.855744,902.084729 C188.793971,899.313448 170.876664,891.301725 156.100114,878.941503 L153.91852,877.111611 C126.444398,854.005173 105.025892,833.639291 89.5038706,815.706493 L88.8942215,814.999882 C73.2767466,796.839662 54.5301583,770.453814 32.2666163,735.494399 L30.1356553,732.140869 C19.5962043,715.499706 14,696.20712 14,676.508181 L14,298.140873 C14,274.639028 21.9617944,251.830358 36.5872214,233.433793 L172.09936,62.9801065 C183.904748,48.1307219 201.561017,39.1197576 220.512356,38.2722955 L437.789536,28.5561359 C438.489967,28.516202 439.191101,28.516202 439.892211,28.516202 Z M500.882,68.999202 L467.97302,68.999202 C455.42453,68.999202 443.560663,74.721157 435.747308,84.5403268 L294.548352,261.987335 C286.946563,271.540625 282.807837,283.388752 282.807837,295.597459 L282.807837,712.488458 C282.807837,720.512846 285.153154,728.362281 289.553384,735.071178 C305.306486,759.083092 320.854135,779.799792 336.181226,797.218376 L337.119344,798.280699 C348.787973,811.446849 365.843498,829.276338 388.260765,851.73823 L391.797769,855.276284 L396.710397,860.171588 C400.454174,863.894294 404.331373,867.732245 408.341895,871.685321 L411.061058,874.363074 C422.738358,885.838459 438.99388,891.392332 455.252366,889.462216 L479.969,886.526202 L780.630117,850.092608 C803.110343,847.367857 823.241084,834.857887 835.63863,815.908331 L838.237134,811.920888 C853.169514,788.915741 864.154551,770.371977 871.191904,756.289375 L871.872562,754.919155 C880.753882,736.934938 890.91298,712.267289 902.351266,680.916723 C905.426375,672.486551 907,663.582544 907,654.609022 L907,286.78745 C907,270.112165 901.57088,253.89022 891.533474,240.574229 L778.973962,91.2486538 C769.388401,78.532097 754.430018,71.0016472 738.505885,70.8759425 L500.882,68.999202 Z M422.471822,69.280343 L300.240376,74.7463718 C290.629117,76.4947914 281.882876,81.6211666 275.646452,89.2986809 L137.500706,259.366655 C129.685615,268.987631 125.419744,281.005121 125.419744,293.400234 L125.419744,709.908656 C125.419744,717.947356 127.773189,725.810189 132.187779,732.526239 C148.295684,757.022796 164.183624,778.085667 179.838243,795.714129 C195.490745,813.340208 217.572434,834.312776 246.048703,858.569777 L247.134824,859.493927 C253.11631,864.571796 260.111363,868.265919 267.619499,870.350933 L397.684963,889.254239 L397.00734,888.596034 L389.87877,881.582941 L389.895734,881.565696 L384.469836,876.191817 C356.591025,848.521741 335.86039,827.014082 322.151633,811.545978 C305.844327,793.145834 289.40963,771.312372 272.830253,746.040995 C266.292124,736.072509 262.807837,724.411106 262.807837,712.489123 L262.807837,295.597459 C262.807837,278.865241 268.480024,262.627204 278.89839,249.534275 L420.097347,72.0872668 C420.863127,71.1248979 421.655098,70.1890258 422.471822,69.280343 Z M260.248,76.535202 L222.299282,78.2323615 C214.905125,78.563012 208.016259,82.0787789 203.410204,87.8724956 L67.8980656,258.326182 C58.8989444,269.645709 54,283.680034 54,298.140873 L54,676.508181 C54,688.628445 57.4433813,700.4993 63.9283746,710.738717 L65.9406684,713.907296 C87.0704648,747.089697 104.682669,771.921062 118.777944,788.400971 L119.221889,788.918613 C133.567965,805.600433 154.416158,825.381306 181.76614,848.261622 C190.857142,855.866022 201.881778,860.795688 213.610613,862.500875 L221.308178,863.619269 L219.112088,861.695211 C196.564161,841.88626 178.510493,824.339205 164.883687,808.994236 C148.551899,790.603223 132.089429,768.77869 115.475939,743.513249 C108.916107,733.533577 105.419744,721.852271 105.419744,709.909173 L105.419,651.999202 L104,652 C97.372583,652 92,646.627417 92,640 L92,588 C92,581.372583 97.372583,576 104,576 L105.419,575.999202 L105.419,427.999202 L104,428 C97.372583,428 92,422.627417 92,416 L92,364 C92,357.372583 97.372583,352 104,352 L105.419,351.999202 L105.419744,293.400234 C105.419744,276.412544 111.266184,259.942391 121.976886,246.756699 L260.248,76.535202 Z M809.752072,710.258473 C817.525678,710.258473 823.82743,716.560225 823.82743,724.333831 L823.82743,811.493544 C823.82743,818.652945 818.453171,824.671693 811.339444,825.479106 L477.208321,863.403228 C476.681312,863.463043 476.151343,863.493023 475.62095,863.493023 C467.847344,863.493023 461.545592,857.191271 461.545592,849.417665 L461.545592,752.471082 L461.610311,751.114717 C462.252717,744.414757 467.605536,739.020885 474.439841,738.445367 L808.570964,710.308115 C808.963798,710.275035 809.357848,710.258473 809.752072,710.258473 Z M494.892162,767.111196 L494.635406,767.234744 C485.95653,771.497787 479.066299,782.51877 477.6661,796.041024 C476.07219,811.434968 482.101784,825.159709 491.700479,829.919537 C500.499451,825.748885 507.511539,814.644647 508.92546,800.989872 C510.519357,785.596058 504.489877,771.871419 494.892162,767.111196 Z M566.333281,760.713303 L566.07269,760.836862 C557.263092,765.099897 550.269087,776.120882 548.84784,789.64314 C547.229897,805.036839 553.35009,818.761392 563.093181,823.521813 C572.024861,819.351305 579.142737,808.246946 580.577932,794.591976 C582.195889,779.198151 576.075581,765.473499 566.333281,760.713303 Z M634.117278,754.984251 L634.107667,754.990487 C625.802381,759.599712 619.30868,770.271192 617.945052,783.24525 C616.397217,797.971912 621.931433,811.170947 630.9444,816.453827 C639.253981,811.847311 645.751869,801.172817 647.115988,788.194086 C648.663823,773.467425 643.129607,760.26839 634.117278,754.984251 Z M701.276248,748.966402 L701.227832,748.996456 C693.258243,753.804859 687.087902,764.238768 685.762686,776.84736 C684.250721,791.232742 689.496367,804.16048 698.140944,809.675952 C706.133727,804.880524 712.326171,794.430066 713.654044,781.796196 C715.166008,767.410815 709.920362,754.483077 701.276248,748.966402 Z M765.874176,744.259794 L765.797911,744.310361 C758.163091,749.293238 752.307968,759.485923 751.021163,771.729049 C749.545698,785.767159 754.505518,798.417154 762.779392,804.146483 C770.451729,799.181975 776.341828,788.962032 777.632944,776.677884 C779.108468,762.639206 774.148188,749.988756 765.874176,744.259794 Z M784.993129,136.771782 L872.692862,252.951324 C876.068544,257.423233 876.056138,263.595108 872.662505,268.05341 L830.392625,323.584429 C829.735042,324.448312 828.967715,325.222844 828.110016,325.888472 C822.656144,330.121014 814.803754,329.13093 810.571212,323.677058 L722.526845,210.226854 C716.931905,203.017452 717.085204,192.891967 722.89583,185.855245 L763.80867,136.309422 L764.064642,136.008515 C764.671925,135.315435 765.348808,134.686091 766.084835,134.13049 C772.035589,129.638482 780.501121,130.821028 784.993129,136.771782 Z M804.771652,238.156449 L804.612435,238.313839 C799.030364,243.893722 795.343697,252.203972 795.015838,261.592613 C794.662132,271.721449 798.295755,280.870909 804.22902,286.843408 C809.899752,281.263035 813.653209,272.884631 813.984162,263.407387 C814.337868,253.278551 810.704245,244.129091 804.771652,238.156449 Z M755.239221,177.996831 L754.986125,178.323663 C750.894776,183.693761 748.289054,190.768746 748.015838,198.592613 C747.714255,207.228827 750.311416,215.153045 754.761551,221.00296 C758.997904,215.594684 761.705371,208.390915 761.984162,200.407387 C762.285745,191.771173 759.688584,183.846955 755.239221,177.996831 Z" id="Combined-Shape" fill="#000000"></path>
    </g>
</svg>