<?xml version="1.0" encoding="UTF-8"?>
<svg width="960px" height="960px" viewBox="0 0 960 960" version="1.1" xmlns="http://www.w3.org/2000/svg" xmlns:xlink="http://www.w3.org/1999/xlink">
    <title>drivers/fbht55esbwg-matter/assets/icon</title>
    <g id="/drivers/fbht55esbwg-matter/assets/icon" stroke="none" fill="none" fill-rule="nonzero">
        <path d="M191.003521,1.84916558 L791.253035,47.0244271 C827.771791,49.7728581 855.999636,80.2049841 855.999636,116.827019 L855.999636,823.086769 C855.999636,858.81648 829.090587,888.81182 793.570463,892.676155 L196.976474,957.581313 C193.995188,957.905656 190.998514,958.068185 187.999636,958.068185 C142.160002,958.068185 104.999636,920.907819 104.999636,875.068185 L104.999636,81.6235563 L105.013745,80.1211949 C105.041958,78.6190976 105.112481,77.1179942 105.225246,75.6196712 C108.5411,31.5614919 146.945342,-1.46668845 191.003521,1.84916558 Z M145.112441,78.6216136 C145.037264,79.6204956 144.999636,80.6218491 144.999636,81.623556 L144.999636,875.068185 C144.999636,898.538024 163.802655,917.616184 187.1663,918.060271 C178.989167,909.158939 173.998073,897.28565 173.998073,884.246629 L173.998073,74.6920593 C173.998073,73.5713447 174.035753,72.4509469 174.11105,71.3327645 C174.880801,59.9016199 179.434828,49.6273615 186.468209,41.6502592 C165.088616,40.8497261 146.731801,57.1049689 145.112441,78.6216136 Z M194.065859,72.6764825 C194.020681,73.3473919 193.998073,74.0196306 193.998073,74.6920593 L193.998073,884.246629 C193.998073,900.815172 207.429531,914.246629 223.998073,914.246629 C224.756603,914.246629 225.514736,914.217861 226.270841,914.160414 L237.987636,912.883812 L333.634964,902.319481 C334.241803,902.252455 334.841947,902.241213 335.43028,902.281658 L789.244276,852.910792 C804.467186,851.254648 815.999636,838.399503 815.999636,823.086769 L815.999636,116.827019 C815.999636,101.131861 803.901988,88.0895213 788.251093,86.9116223 L246.588636,46.1448115 L226.01365,44.7598451 C209.482545,43.6466727 195.179031,56.145377 194.065859,72.6764825 Z M305.226484,119.774667 L733.226484,147.454192 C759.532997,149.155481 779.999636,170.98849 779.999636,197.349958 L779.999636,745.249034 C779.999636,770.866341 760.638128,792.339683 735.157487,794.982288 L307.157487,839.370301 C305.443947,839.548012 303.722367,839.637046 301.999636,839.637046 C274.385399,839.637046 251.999636,817.251284 251.999636,789.637046 L251.999636,169.670433 C251.999636,168.593975 252.034399,167.517798 252.10387,166.443585 C253.886009,138.886914 277.669814,117.992528 305.226484,119.774667 Z M272.062177,167.734324 C272.020494,168.378852 271.999636,169.024558 271.999636,169.670433 L271.999636,789.637046 C271.999636,806.205589 285.431094,819.637046 301.999636,819.637046 C303.033275,819.637046 304.066223,819.583626 305.094347,819.476999 L733.094347,775.088986 C748.382731,773.503423 759.999636,760.619418 759.999636,745.249034 L759.999636,197.349958 C759.999636,181.533077 747.719652,168.433272 731.935745,167.412498 L303.935745,139.732973 C287.401743,138.66369 273.13146,151.200322 272.062177,167.734324 Z M648.499636,633.791377 C651.813345,633.791377 654.499636,636.477669 654.499636,639.791377 L654.499636,752.93815 C654.499636,756.075712 652.082301,758.683479 648.953738,758.920941 L397.453738,778.010125 C397.302642,778.021593 397.151166,778.027334 396.999636,778.027334 C393.685928,778.027334 390.999636,775.341042 390.999636,772.027334 L390.999636,651.722117 C390.999636,648.518943 393.51575,645.88064 396.715326,645.728857 L648.215326,633.798117 C648.310029,633.793625 648.404826,633.791377 648.499636,633.791377 Z M426.999636,664.313812 L410.999636,665.073725 L410.999636,756.924446 L426.999636,755.709812 L426.999636,664.313812 Z M457.499636,662.866812 L441.999636,663.601812 L441.999636,754.570812 L457.499636,753.394812 L457.499636,662.866812 Z M487.499636,661.443812 L472.499636,662.154812 L472.499636,752.255812 L487.499636,751.116812 L487.499636,661.443812 Z M517.499636,660.020812 L502.499636,660.731812 L502.499636,749.978812 L517.499636,748.839812 L517.499636,660.020812 Z M547.499636,658.597812 L532.499636,659.308812 L532.499636,747.701812 L547.499636,746.562812 L547.499636,658.597812 Z M577.499636,657.174812 L562.499636,657.885812 L562.499636,745.424812 L577.499636,744.285812 L577.499636,657.174812 Z M607.499636,655.751812 L592.499636,656.462812 L592.499636,743.147812 L607.499636,742.008812 L607.499636,655.751812 Z M634.499636,654.471258 L622.499636,655.039812 L622.499636,740.870812 L634.499636,739.960499 L634.499636,654.471258 Z M529.149189,339.319633 C595.503681,339.319633 648.649189,400.958714 648.649189,476.319633 C648.649189,551.680551 595.503681,613.319633 529.149189,613.319633 C462.794696,613.319633 409.649189,551.680551 409.649189,476.319633 C409.649189,400.958714 462.794696,339.319633 529.149189,339.319633 Z M529.149189,359.319633 C474.553321,359.319633 429.649189,411.400225 429.649189,476.319633 C429.649189,541.23904 474.553321,593.319633 529.149189,593.319633 C583.745056,593.319633 628.649189,541.23904 628.649189,476.319633 C628.649189,411.400225 583.745056,359.319633 529.149189,359.319633 Z M396.082361,171.815124 L396.307216,171.823773 L647.422412,184.713717 C650.56522,184.875039 653.049373,187.437113 653.113583,190.583404 L655.375466,301.354467 L655.375466,301.49949 C655.362943,304.813175 652.666552,307.489329 649.352867,307.476978 L395.977037,306.522514 C392.672174,306.510066 389.999636,303.827443 389.999636,300.522556 L389.999636,177.815884 C389.999636,177.713307 389.999636,177.610747 390.007525,177.508304 C390.173536,174.274165 392.87103,171.76998 396.082361,171.815124 Z M621.543,203.411 L622.37,287.374 L635.085736,287.42297 L633.383623,204.019426 L621.543,203.411 Z M591.999,201.895 L591.999,287.26 L607.368,287.318 L606.534,202.641 L591.999,201.895 Z M561.999,200.355 L561.999,287.148 L576.999,287.204 L576.999,201.125 L561.999,200.355 Z M531.999,198.815 L531.999,287.035 L546.999,287.091 L546.999,199.585 L531.999,198.815 Z M501.999,197.275 L501.999,286.922 L516.999,286.978 L516.999,198.045 L501.999,197.275 Z M471.999,195.735 L471.999,286.809 L486.999,286.865 L486.999,196.505 L471.999,195.735 Z M441.999,194.195 L441.999,286.696 L456.999,286.752 L456.999,194.965 L441.999,194.195 Z M409.999636,192.552947 L409.999636,286.575187 L426.999,286.639 L426.999,193.425 L409.999636,192.552947 Z" id="Shape" fill="#000000"></path>
    </g>
</svg>