<?xml version="1.0" encoding="UTF-8"?>
<svg width="960px" height="960px" viewBox="0 0 960 960" version="1.1" xmlns="http://www.w3.org/2000/svg" xmlns:xlink="http://www.w3.org/1999/xlink">
    <title>drivers/eud64npnipm-matter/assets/icon</title>
    <g id="/drivers/eud64npnipm-matter/assets/icon" stroke="none" fill="none" fill-rule="nonzero">
        <path d="M406.892211,28.516202 L705.821634,30.8771888 C734.190598,31.1011326 760.839072,44.5166866 777.915823,67.1713298 L890.475334,216.496905 C905.74228,236.750595 914,261.424257 914,286.78745 L914,654.610054 C914,668.258827 911.606509,681.801867 906.928322,694.626751 L905.525323,698.456537 C894.036266,729.689335 883.697351,754.597014 874.351351,773.410522 L873.973003,774.169893 C865.83725,790.450527 853.494327,811.184356 836.814124,836.731346 L836.111384,837.807526 C817.254653,866.629897 786.635694,885.657625 752.442177,889.802104 L416.991593,930.452537 C399.999472,932.511657 382.809286,932.307689 365.870711,929.845957 L239.371548,908.467131 C220.309775,905.69585 202.392468,897.684127 187.615918,885.323905 L185.434324,883.494013 C157.960202,860.387575 136.541696,840.021693 121.019675,822.088895 L120.410026,821.382284 C104.792551,803.222064 87.4432716,780.992825 65.1797296,746.03341 L63.0487686,742.67988 C52.5093176,726.038717 46.9131133,706.746131 46.9131133,687.047192 L46.9131133,308.679884 C46.9131133,285.178039 54.8749077,262.369369 69.5003347,243.972804 L203.615164,69.3625088 C215.420552,54.5131242 233.076821,45.5021599 252.02816,44.6546978 L404.789536,28.5561359 C405.489967,28.516202 406.191101,28.516202 406.892211,28.516202 Z M467.882,68.999202 L434.97302,68.999202 C422.42453,68.999202 410.560663,74.721157 402.747308,84.5403268 L261.548352,261.987335 C253.946563,271.540625 249.807837,283.388752 249.807837,295.597459 L249.807837,712.488458 C249.807837,720.512846 252.153154,728.362281 256.553384,735.071178 C272.306486,759.083092 287.854135,779.799792 303.181226,797.218376 L304.119344,798.280699 C315.787973,811.446849 332.843498,829.276338 355.260765,851.73823 L358.797769,855.276284 L363.710397,860.171588 C367.454174,863.894294 371.331373,867.732245 375.341895,871.685321 L378.061058,874.363074 C389.738358,885.838459 405.99388,891.392332 422.252366,889.462216 L446.969,886.526202 L747.630117,850.092608 C770.110343,847.367857 790.241084,834.857887 802.63863,815.908331 L805.237134,811.920888 C820.169514,788.915741 831.154551,770.371977 838.191904,756.289375 L838.872562,754.919155 C847.753882,736.934938 857.91298,712.267289 869.351266,680.916723 C872.426375,672.486551 874,663.582544 874,654.609022 L874,286.78745 C874,270.112165 868.57088,253.89022 858.533474,240.574229 L745.973962,91.2486538 C736.388401,78.532097 721.430018,71.0016472 705.505885,70.8759425 L467.882,68.999202 Z M389.471822,69.280343 L267.240376,74.7463718 C257.629117,76.4947914 248.882876,81.6211666 242.646452,89.2986809 L104.500706,259.366655 C96.685615,268.987631 92.419744,281.005121 92.419744,293.400234 L92.419744,709.908656 C92.419744,717.947356 94.773189,725.810189 99.187779,732.526239 C115.295684,757.022796 131.183624,778.085667 146.838243,795.714129 C162.490745,813.340208 184.572434,834.312776 213.048703,858.569777 L214.134824,859.493927 C220.11631,864.571796 227.111363,868.265919 234.619499,870.350933 L364.684963,889.254239 L364.00734,888.596034 L356.87877,881.582941 L356.895734,881.565696 L351.469836,876.191817 C323.591025,848.521741 302.86039,827.014082 289.151633,811.545978 C272.844327,793.145834 256.40963,771.312372 239.830253,746.040995 C233.292124,736.072509 229.807837,724.411106 229.807837,712.489123 L229.807837,295.597459 C229.807837,278.865241 235.480024,262.627204 245.89839,249.534275 L387.097347,72.0872668 C387.863127,71.1248979 388.655098,70.1890258 389.471822,69.280343 Z M776.752072,710.258473 C784.525678,710.258473 790.82743,716.560225 790.82743,724.333831 L790.82743,811.493544 C790.82743,818.652945 785.453171,824.671693 778.339444,825.479106 L444.208321,863.403228 C443.681312,863.463043 443.151343,863.493023 442.62095,863.493023 C434.847344,863.493023 428.545592,857.191271 428.545592,849.417665 L428.545592,752.471082 L428.610311,751.114717 C429.252717,744.414757 434.605536,739.020885 441.439841,738.445367 L775.570964,710.308115 C775.963798,710.275035 776.357848,710.258473 776.752072,710.258473 Z M461.892162,767.111196 L461.635406,767.234744 C452.95653,771.497787 446.066299,782.51877 444.6661,796.041024 C443.07219,811.434968 449.101784,825.159709 458.700479,829.919537 C467.499451,825.748885 474.511539,814.644647 475.92546,800.989872 C477.519357,785.596058 471.489877,771.871419 461.892162,767.111196 Z M533.333281,760.713303 L533.07269,760.836862 C524.263092,765.099897 517.269087,776.120882 515.84784,789.64314 C514.229897,805.036839 520.35009,818.761392 530.093181,823.521813 C539.024861,819.351305 546.142737,808.246946 547.577932,794.591976 C549.195889,779.198151 543.075581,765.473499 533.333281,760.713303 Z M601.117278,754.984251 L601.107667,754.990487 C592.802381,759.599712 586.30868,770.271192 584.945052,783.24525 C583.397217,797.971912 588.931433,811.170947 597.9444,816.453827 C606.253981,811.847311 612.751869,801.172817 614.115988,788.194086 C615.663823,773.467425 610.129607,760.26839 601.117278,754.984251 Z M668.276248,748.966402 L668.227832,748.996456 C660.258243,753.804859 654.087902,764.238768 652.762686,776.84736 C651.250721,791.232742 656.496367,804.16048 665.140944,809.675952 C673.133727,804.880524 679.326171,794.430066 680.654044,781.796196 C682.166008,767.410815 676.920362,754.483077 668.276248,748.966402 Z M732.874176,744.259794 L732.797911,744.310361 C725.163091,749.293238 719.307968,759.485923 718.021163,771.729049 C716.545698,785.767159 721.505518,798.417154 729.779392,804.146483 C737.451729,799.181975 743.341828,788.962032 744.632944,776.677884 C746.108468,762.639206 741.148188,749.988756 732.874176,744.259794 Z" id="Shape" fill="#000000"></path>
    </g>
</svg>